<svg xmlns="http://www.w3.org/2000/svg" height="1024" preserveAspectRatio="none" style="display: block;" version="1.1" viewBox="0 0 2048 2048" width="1024">
<path d="M 0 0 L 2048 0 L 2048 2048 L 0 2048 L 0 0 z" fill="rgb(255,255,255)" transform="translate(0,0)"></path>
<path d="M 445.296 474.688 C 481.691 355.728 595.032 144.682 707.456 78.5203 C 738.269 60.3865 787.007 48.2164 822.011 59.9403 C 842.007 66.6374 864.842 79.3229 874.907 99.0513 C 881.099 111.443 882.115 125.786 877.733 138.927 C 869.323 163.898 843.219 179.136 817.918 169.114 C 808.721 165.563 801.377 158.403 797.595 149.298 C 793.257 138.915 794.679 114.516 808.794 114.155 C 810.471 115.515 811.853 117.13 811.623 119.537 C 809.773 138.924 805.816 153.162 831.542 155.024 C 839.558 154.974 848.121 149.74 852.94 143.93 C 868.863 124.734 860.007 103.245 841.931 89.6266 C 811.57 66.752 776.635 66.5071 742.578 79.9344 C 757.714 96.7841 759.62 115.104 758.051 136.957 C 754.518 186.159 739.328 235.921 726.07 283.202 C 754.542 270.723 803.637 255.48 832.714 241.896 C 840.831 238.104 863.4 199.616 874.609 192.027 C 927.587 139.327 1012.31 90.428 1088.57 114.534 C 1095.43 116.722 1105.29 123.669 1107.77 130.452 C 1117.89 158.098 1070.6 188.516 1050.53 196.34 C 1047.05 197.689 1043.51 198.861 1039.92 199.853 C 1072.62 200.496 1104.29 201.922 1136.45 208.555 C 1142.76 209.856 1149.75 211.166 1156.12 210.088 C 1195.29 201.762 1225.29 178.257 1261.84 162.822 C 1315.54 140.139 1402.83 120.261 1450.73 165.482 C 1473.3 186.794 1474.67 226.429 1451.35 248.033 C 1429.28 268.481 1394.45 264.966 1379.63 237.7 C 1365.52 211.014 1395.53 169.558 1419.98 201.157 C 1424.61 207.03 1423.21 218.617 1414.9 215.843 C 1409.49 210.079 1407.19 203.233 1400.49 202.482 C 1388.48 206.163 1386.74 220.999 1391.22 231.299 C 1397.55 246.473 1418 251.435 1432.11 245.573 C 1452.77 236.991 1461.3 206.314 1450.85 187.32 C 1432.01 153.102 1389.22 151.603 1356 152.532 C 1286.99 154.463 1237.15 194.464 1175.68 217.678 C 1232.68 233.512 1300.44 262.009 1349.51 295.422 C 1406.23 271.472 1497.5 272.49 1553.52 295.852 C 1602.74 316.376 1643.46 360.822 1681.51 397.146 C 1690.38 405.62 1711.01 416.246 1702.7 430.718 C 1700.06 435.319 1692.07 437.111 1687.25 437.639 C 1630.27 440.543 1561.46 424.978 1508.26 408.332 C 1552.95 445.593 1583.15 475.912 1622.44 517.968 C 1723.89 512.515 1838.6 553.764 1845.59 671.72 C 1848.49 720.516 1753.54 667.813 1738.12 654.871 C 1724.8 644.808 1713.32 635.527 1700.48 625.786 C 1713.93 644.764 1723.35 660.125 1734.81 680.711 C 1741.02 689.746 1746.47 703.763 1753.21 712.146 C 1781.88 747.553 1820.76 790.173 1866.3 801.294 C 1887.3 806.42 1906.95 791.639 1911.12 767.685 C 1916.26 738.11 1885.1 711.201 1860.3 733.901 C 1854.66 739.069 1853.6 759.89 1866.76 763.605 C 1872.32 762.315 1874.65 755.606 1881.03 756.483 C 1883.82 760.292 1883.36 763.239 1882.63 767.998 C 1872.36 785.032 1846.48 772.137 1842.86 751.201 C 1841.45 742.676 1843.69 733.951 1849.02 727.154 C 1863.13 708.858 1892.71 710.272 1909.14 724.224 C 1929.4 741.431 1929.46 778.396 1912.41 797.682 C 1886.79 826.664 1848.91 813.76 1821.45 795.935 C 1807.07 786.603 1793.87 774.602 1779.66 765.766 C 1800.99 810.868 1814.94 844.581 1828.16 893.449 C 1856.4 898.552 1888.47 941.046 1904.56 964.333 C 1923.19 992.044 1940.22 1021.62 1954.25 1051.94 C 1972.48 1091.72 1992.02 1136.16 1984.47 1180.84 C 1982.01 1195.4 1976.95 1203.23 1961.29 1197.96 C 1898.02 1176.66 1865.55 1111.35 1844.25 1052.98 C 1842.02 1092.4 1844.22 1130.31 1840.47 1170.01 C 1836.45 1212.56 1828.33 1255.48 1829.3 1298.02 C 1829.99 1313.43 1836.69 1332.82 1846.53 1344.6 C 1875.13 1378.82 1937.11 1367.88 1938.17 1317.95 C 1938.57 1298.75 1921.57 1276.44 1901.38 1277.56 C 1894.54 1277.88 1888.16 1281.1 1883.84 1286.41 C 1874.82 1297.68 1878 1318.99 1892.09 1321.81 C 1900.8 1319.5 1896.64 1314.71 1902 1310.87 C 1907.33 1311.81 1911.96 1319.16 1910.02 1323.22 C 1899.66 1344.96 1871 1330.67 1866.45 1313.1 C 1860.93 1291.77 1872.81 1270.82 1893.46 1265.08 C 1919.77 1258.6 1943.25 1282.49 1948.83 1306.46 C 1952.39 1321.63 1949.67 1337.6 1941.28 1350.73 C 1921.68 1381.06 1876.35 1384.17 1849.04 1364.07 C 1797.21 1325.94 1820.58 1242.88 1825.47 1190.26 C 1819.23 1207.55 1813.93 1230.32 1808.35 1248.58 C 1800.76 1273.37 1792.67 1290.48 1782.91 1313.75 C 1789.26 1324.13 1796.28 1335.15 1801.78 1345.91 C 1823.21 1387.9 1826.26 1435.08 1815.25 1480.53 C 1799.85 1544.65 1754 1594.39 1708.3 1639.28 C 1697.67 1649.72 1686.6 1662.11 1674.57 1670.59 C 1668.08 1675.16 1659.15 1669.92 1657.6 1662.09 C 1655.93 1653.63 1654.14 1645.49 1653.33 1636.85 C 1646.96 1587.12 1653.88 1547.68 1666.06 1500.07 C 1655.27 1512.38 1644.99 1525.63 1634.11 1538.1 C 1626.44 1546.88 1610.83 1562.56 1605.22 1571.37 C 1602.13 1576.22 1594.82 1600.55 1592.25 1607.78 C 1586.17 1625.11 1579.27 1642.15 1571.59 1658.83 C 1530.59 1748.84 1481.6 1837.73 1413.78 1910.5 C 1375.47 1951.43 1328.11 1987.06 1270.22 1990.94 C 1229.94 1993.64 1174.63 1974.12 1170.57 1927.59 C 1169.49 1915.15 1175.74 1901.11 1184.24 1892.12 C 1192.43 1883.61 1203.67 1878.71 1215.48 1878.51 C 1265.47 1877.55 1260.74 1935.16 1244.6 1935.88 C 1241.74 1934.11 1241.91 1934.28 1240.32 1931.31 C 1240.88 1920.47 1243.22 1909.77 1235.41 1900.58 C 1227.82 1891.66 1207.95 1895.98 1200.47 1902.84 C 1194.04 1908.74 1190.46 1919.21 1188.58 1927.7 C 1197.88 1957.5 1219.62 1968.17 1249.01 1974.02 C 1266.52 1977.51 1282.2 1974.43 1299.54 1971.41 C 1279.35 1906.84 1302.92 1830.02 1321.83 1767 C 1300.76 1776.03 1281.69 1783.84 1259.94 1791.16 C 1243.26 1796.77 1226.51 1801.33 1209.97 1806.72 C 1199.3 1823.71 1186.92 1841.87 1172.61 1856.36 C 1136.04 1893.05 1088.51 1922.76 1037.99 1934.95 C 1008.35 1942.1 974.394 1942.08 947.346 1926.67 C 931.866 1917.84 929.844 1903.15 939.838 1889.01 C 955.94 1866.24 976.951 1852.64 1003.42 1844.56 L 1002.32 1844.43 C 984.128 1842.38 953.032 1841.94 933.039 1840.29 C 866.636 1834.84 827.499 1821.21 766.235 1799.84 C 755.618 1803.91 741.716 1812.53 731.207 1818.01 C 713.761 1827.1 698.569 1833.27 680.044 1839.7 C 657.537 1857.97 645.612 1870.66 613.825 1871.9 C 592.041 1872.8 570.792 1865 554.774 1850.21 C 511.989 1810.47 516.845 1717.13 514.89 1660.79 C 478.207 1652.03 456.781 1622.16 450.517 1586.55 C 428.283 1575.65 406.252 1564.33 384.435 1552.61 C 350.01 1569.65 322.44 1565.46 291.384 1543.91 C 269.913 1556.66 248.264 1569.11 226.443 1581.26 C 181.546 1606.5 115.265 1648.73 67.235 1607.29 C 51.4321 1593.6 41.7668 1574.16 40.3966 1553.3 C 37.8739 1514.55 63.5938 1488.42 85.32 1459.15 L 132.921 1394.23 L 191.229 1314.29 C 203.809 1297.11 216.721 1278.68 230.737 1262.75 C 227.131 1243.16 223.98 1223.48 221.286 1203.74 C 219.64 1191.52 218.229 1176.67 215.493 1164.97 C 202.1 1152.15 185.003 1137.14 173.196 1121.85 C 122.558 1056.16 72.2855 974.036 63.8358 890.061 C 62.731 879.082 65.5858 851.074 81.7705 854.698 C 150.104 870.002 181.08 936.852 206.754 993.421 C 207.087 962.698 209.926 932.053 215.241 901.791 C 224.599 845.469 238.814 792.197 238.525 734.371 C 238.376 704.547 238.484 677.093 215.779 654.195 C 205.901 644.216 191.336 636.484 177.1 636.618 C 164.438 636.699 152.391 642.092 143.897 651.483 C 128.069 668.681 126.137 698.054 145.543 713.275 C 153.118 719.283 162.83 721.913 172.401 720.547 C 180.298 719.352 186.935 715.502 191.543 708.909 C 195.411 703.459 196.765 696.616 195.266 690.104 C 193.549 682.676 189.567 677.612 183.707 673.463 C 171.865 665.08 157.451 680.354 154.32 668.682 C 156.725 658.8 174.024 656.643 181.708 659.591 C 201.019 666.999 211.392 687.764 205.27 707.266 C 202.34 716.673 195.667 724.459 186.819 728.794 C 163.211 740.356 133.752 728.131 123.979 704.011 C 117.906 689.413 118.203 672.942 124.798 658.572 C 131.253 644.449 143.04 633.46 157.579 628.009 C 187.418 616.648 214.6 631.736 232.322 655.449 C 224.622 572.586 243.436 522.743 296.237 457.734 C 306.74 444.803 375.156 369.301 386.007 365.431 C 389.884 366.192 393.304 367.685 395.452 371.216 C 401.425 381.038 397.675 477.602 395.761 494.103 C 393.972 509.526 390.789 524.535 386.624 539.481 C 401.664 520.691 426.696 490.595 445.296 474.688 z" fill="rgb(255,255,255)" transform="translate(0,0)"></path>
<path d="M 445.296 474.688 C 481.691 355.728 595.032 144.682 707.456 78.5203 C 738.269 60.3865 787.007 48.2164 822.011 59.9403 C 842.007 66.6374 864.842 79.3229 874.907 99.0513 C 881.099 111.443 882.115 125.786 877.733 138.927 C 869.323 163.898 843.219 179.136 817.918 169.114 C 808.721 165.563 801.377 158.403 797.595 149.298 C 793.257 138.915 794.679 114.516 808.794 114.155 C 810.471 115.515 811.853 117.13 811.623 119.537 C 809.773 138.924 805.816 153.162 831.542 155.024 C 839.558 154.974 848.121 149.74 852.94 143.93 C 868.863 124.734 860.007 103.245 841.931 89.6266 C 811.57 66.752 776.635 66.5071 742.578 79.9344 C 757.714 96.7841 759.62 115.104 758.051 136.957 C 754.518 186.159 739.328 235.921 726.07 283.202 C 754.542 270.723 803.637 255.48 832.714 241.896 C 840.831 238.104 863.4 199.616 874.609 192.027 C 927.587 139.327 1012.31 90.428 1088.57 114.534 C 1095.43 116.722 1105.29 123.669 1107.77 130.452 C 1117.89 158.098 1070.6 188.516 1050.53 196.34 C 1047.05 197.689 1043.51 198.861 1039.92 199.853 C 1072.62 200.496 1104.29 201.922 1136.45 208.555 C 1142.76 209.856 1149.75 211.166 1156.12 210.088 C 1195.29 201.762 1225.29 178.257 1261.84 162.822 C 1315.54 140.139 1402.83 120.261 1450.73 165.482 C 1473.3 186.794 1474.67 226.429 1451.35 248.033 C 1429.28 268.481 1394.45 264.966 1379.63 237.7 C 1365.52 211.014 1395.53 169.558 1419.98 201.157 C 1424.61 207.03 1423.21 218.617 1414.9 215.843 C 1409.49 210.079 1407.19 203.233 1400.49 202.482 C 1388.48 206.163 1386.74 220.999 1391.22 231.299 C 1397.55 246.473 1418 251.435 1432.11 245.573 C 1452.77 236.991 1461.3 206.314 1450.85 187.32 C 1432.01 153.102 1389.22 151.603 1356 152.532 C 1286.99 154.463 1237.15 194.464 1175.68 217.678 C 1232.68 233.512 1300.44 262.009 1349.51 295.422 C 1406.23 271.472 1497.5 272.49 1553.52 295.852 C 1602.74 316.376 1643.46 360.822 1681.51 397.146 C 1690.38 405.62 1711.01 416.246 1702.7 430.718 C 1700.06 435.319 1692.07 437.111 1687.25 437.639 C 1630.27 440.543 1561.46 424.978 1508.26 408.332 C 1552.95 445.593 1583.15 475.912 1622.44 517.968 C 1723.89 512.515 1838.6 553.764 1845.59 671.72 C 1848.49 720.516 1753.54 667.813 1738.12 654.871 C 1724.8 644.808 1713.32 635.527 1700.48 625.786 C 1713.93 644.764 1723.35 660.125 1734.81 680.711 C 1741.02 689.746 1746.47 703.763 1753.21 712.146 C 1781.88 747.553 1820.76 790.173 1866.3 801.294 C 1887.3 806.42 1906.95 791.639 1911.12 767.685 C 1916.26 738.11 1885.1 711.201 1860.3 733.901 C 1854.66 739.069 1853.6 759.89 1866.76 763.605 C 1872.32 762.315 1874.65 755.606 1881.03 756.483 C 1883.82 760.292 1883.36 763.239 1882.63 767.998 C 1872.36 785.032 1846.48 772.137 1842.86 751.201 C 1841.45 742.676 1843.69 733.951 1849.02 727.154 C 1863.13 708.858 1892.71 710.272 1909.14 724.224 C 1929.4 741.431 1929.46 778.396 1912.41 797.682 C 1886.79 826.664 1848.91 813.76 1821.45 795.935 C 1807.07 786.603 1793.87 774.602 1779.66 765.766 C 1800.99 810.868 1814.94 844.581 1828.16 893.449 C 1856.4 898.552 1888.47 941.046 1904.56 964.333 C 1923.19 992.044 1940.22 1021.62 1954.25 1051.94 C 1972.48 1091.72 1992.02 1136.16 1984.47 1180.84 C 1982.01 1195.4 1976.95 1203.23 1961.29 1197.96 C 1898.02 1176.66 1865.55 1111.35 1844.25 1052.98 C 1842.02 1092.4 1844.22 1130.31 1840.47 1170.01 C 1836.45 1212.56 1828.33 1255.48 1829.3 1298.02 C 1829.99 1313.43 1836.69 1332.82 1846.53 1344.6 C 1875.13 1378.82 1937.11 1367.88 1938.17 1317.95 C 1938.57 1298.75 1921.57 1276.44 1901.38 1277.56 C 1894.54 1277.88 1888.16 1281.1 1883.84 1286.41 C 1874.82 1297.68 1878 1318.99 1892.09 1321.81 C 1900.8 1319.5 1896.64 1314.71 1902 1310.87 C 1907.33 1311.81 1911.96 1319.16 1910.02 1323.22 C 1899.66 1344.96 1871 1330.67 1866.45 1313.1 C 1860.93 1291.77 1872.81 1270.82 1893.46 1265.08 C 1919.77 1258.6 1943.25 1282.49 1948.83 1306.46 C 1952.39 1321.63 1949.67 1337.6 1941.28 1350.73 C 1921.68 1381.06 1876.35 1384.17 1849.04 1364.07 C 1797.21 1325.94 1820.58 1242.88 1825.47 1190.26 C 1819.23 1207.55 1813.93 1230.32 1808.35 1248.58 C 1800.76 1273.37 1792.67 1290.48 1782.91 1313.75 C 1789.26 1324.13 1796.28 1335.15 1801.78 1345.91 C 1823.21 1387.9 1826.26 1435.08 1815.25 1480.53 C 1799.85 1544.65 1754 1594.39 1708.3 1639.28 C 1697.67 1649.72 1686.6 1662.11 1674.57 1670.59 C 1668.08 1675.16 1659.15 1669.92 1657.6 1662.09 C 1655.93 1653.63 1654.14 1645.49 1653.33 1636.85 C 1646.96 1587.12 1653.88 1547.68 1666.06 1500.07 C 1655.27 1512.38 1644.99 1525.63 1634.11 1538.1 C 1626.44 1546.88 1610.83 1562.56 1605.22 1571.37 C 1602.13 1576.22 1594.82 1600.55 1592.25 1607.78 C 1586.17 1625.11 1579.27 1642.15 1571.59 1658.83 C 1530.59 1748.84 1481.6 1837.73 1413.78 1910.5 C 1375.47 1951.43 1328.11 1987.06 1270.22 1990.94 C 1229.94 1993.64 1174.63 1974.12 1170.57 1927.59 C 1169.49 1915.15 1175.74 1901.11 1184.24 1892.12 C 1192.43 1883.61 1203.67 1878.71 1215.48 1878.51 C 1265.47 1877.55 1260.74 1935.16 1244.6 1935.88 C 1241.74 1934.11 1241.91 1934.28 1240.32 1931.31 C 1240.88 1920.47 1243.22 1909.77 1235.41 1900.58 C 1227.82 1891.66 1207.95 1895.98 1200.47 1902.84 C 1194.04 1908.74 1190.46 1919.21 1188.58 1927.7 C 1197.88 1957.5 1219.62 1968.17 1249.01 1974.02 C 1266.52 1977.51 1282.2 1974.43 1299.54 1971.41 C 1279.35 1906.84 1302.92 1830.02 1321.83 1767 C 1300.76 1776.03 1281.69 1783.84 1259.94 1791.16 C 1243.26 1796.77 1226.51 1801.33 1209.97 1806.72 C 1199.3 1823.71 1186.92 1841.87 1172.61 1856.36 C 1136.04 1893.05 1088.51 1922.76 1037.99 1934.95 C 1008.35 1942.1 974.394 1942.08 947.346 1926.67 C 931.866 1917.84 929.844 1903.15 939.838 1889.01 C 955.94 1866.24 976.951 1852.64 1003.42 1844.56 L 1002.32 1844.43 C 984.128 1842.38 953.032 1841.94 933.039 1840.29 C 866.636 1834.84 827.499 1821.21 766.235 1799.84 C 755.618 1803.91 741.716 1812.53 731.207 1818.01 C 713.761 1827.1 698.569 1833.27 680.044 1839.7 C 685.405 1833.19 689.935 1826.38 695.127 1819.82 C 701.896 1808.31 709.353 1787.64 714.526 1774.56 C 720.932 1758.27 727.059 1741.53 733.24 1725.13 C 739.188 1733.84 736.577 1748.76 732.799 1758.13 L 732.177 1759.69 C 764.022 1773.71 786.867 1784.86 820.666 1795.19 C 896.564 1818.38 993.387 1827.23 1072 1816.7 L 1072.24 1816.17 L 1071.68 1815.23 L 1063.58 1814.1 C 1048.42 1813.54 1033.35 1811.49 1018.59 1807.97 C 957.592 1793.16 907.577 1755.1 866.038 1709.29 C 857.49 1698.86 828.214 1673.43 832.337 1658.52 C 836.905 1642 886.506 1638.82 900.706 1637.27 C 913.273 1635.9 930.434 1636.98 942.07 1638.41 C 1006.28 1646.29 1047.4 1698.08 1094.06 1736.77 C 1119.94 1758.21 1148.92 1774.04 1179.95 1786.57 C 1286.87 1764.15 1389.11 1711.31 1477 1647.67 C 1417.34 1664.04 1365.17 1677.31 1302 1669.91 C 1252.18 1664.07 1207.7 1644.73 1185.22 1596.41 C 1182.64 1590.88 1180.4 1581.14 1183.64 1575.32 C 1192.71 1559.05 1214.24 1549.64 1231.03 1543.49 C 1308.08 1517.96 1369.84 1552.75 1431.76 1595.04 C 1446.07 1604.82 1470.59 1622.32 1485.2 1629.67 C 1499.58 1626.31 1508.33 1625.39 1520.06 1615.14 C 1557.35 1582.54 1593.05 1546.54 1624.65 1508.37 C 1634.76 1496.16 1644.22 1484.21 1654.92 1472.47 C 1628.06 1489.25 1603.33 1503.61 1571.54 1507.01 C 1540.44 1510.33 1466.01 1507.2 1493.45 1456.81 C 1503.18 1438.95 1515.13 1424.26 1528.66 1409.43 C 1576.47 1357.05 1639.6 1318.71 1709.8 1306 C 1725.89 1303.09 1742.22 1302.51 1758.52 1301.92 C 1806.17 1207.66 1819.19 1115.57 1819.87 1011.28 C 1818.16 1014.63 1816.31 1017.91 1814.33 1021.11 C 1773.22 1089 1690.61 1127.33 1616.62 1147.92 C 1585.14 1156.69 1587.81 1136.61 1594.24 1113 C 1621.03 1014.62 1696.99 917.789 1804 905.571 C 1777.72 783.87 1671.4 603.224 1587.6 513.773 C 1587.15 545.281 1591.91 581.07 1581.64 611.872 C 1579.91 617.054 1572.13 617.945 1568.67 614.635 C 1561.62 607.912 1566.83 586.773 1567.25 576.872 C 1568.85 553.709 1568.99 531.955 1565.92 508.917 C 1562.45 482.879 1552.28 477.861 1534.06 461.262 C 1493.7 424.5 1449.25 390.38 1404.83 358.535 C 1403.18 356.801 1392.99 349.56 1390.45 347.693 C 1383.48 342.666 1376.38 337.804 1369.17 333.111 C 1334.12 310.123 1290.48 283.783 1251.41 267.098 C 1172.25 233.295 1085.53 216.936 999.524 226.574 C 983.9 228.324 967.501 232.012 952.138 235.214 L 952.924 237.078 C 1007.15 235.613 1062.51 242.685 1108.7 273.431 C 1123.61 283.353 1137.15 295.735 1150.14 308.016 C 1163.36 320.516 1216.79 375.717 1217.44 390.024 C 1217.6 393.529 1215.91 396.78 1213.28 399.013 C 1198.85 411.268 1128.05 411.854 1110.13 409.696 C 1097.95 408.228 1085.63 405.961 1074.12 401.606 C 1022.31 381.996 982.101 332.277 940.146 297.518 C 927.759 287.256 914.022 275.791 899.021 269.761 C 886.547 264.747 870.668 263.615 857.374 264.692 C 829.557 266.945 785.383 286.398 759.232 297.372 C 704.871 320.207 652.518 347.557 602.725 379.136 C 593.484 384.87 580.469 392.098 571.995 397.93 C 644.62 374.695 738.002 358.694 809.328 394.515 C 832.024 405.431 865.067 434.037 873.626 457.662 C 883.039 483.64 813.614 507.601 795.944 511.438 C 740.165 523.548 680.316 495.335 634.245 465.953 C 608.247 449.373 582.597 429.122 553.113 419.924 C 540.418 426.388 529.315 435.58 518.259 444.52 C 470.876 482.84 433.548 525.842 395.002 572.397 C 435.25 544.304 475.704 530.173 524.956 539.232 C 565.466 546.683 558.138 564.146 544.677 592.605 C 498.282 690.693 396.586 740.403 292.478 747.821 C 252.601 838.618 231.881 936.665 231.614 1035.83 C 271.196 966.084 339.861 924.834 415.656 904.034 C 428.268 900.573 452.714 892.375 464.389 898.573 C 467.825 900.396 470.206 903.48 471.157 907.246 C 475.775 925.531 436.4 993.047 424.182 1011.84 C 385.59 1071.21 327.461 1123.71 256.419 1138.62 C 249.935 1139.96 243.382 1140.94 236.789 1141.55 C 239.8 1166.93 242.942 1192.28 246.214 1217.62 C 246.812 1222.16 249.049 1241.35 250.168 1244.78 C 242.71 1251.07 237.611 1255.81 230.737 1262.75 C 227.131 1243.16 223.98 1223.48 221.286 1203.74 C 219.64 1191.52 218.229 1176.67 215.493 1164.97 C 202.1 1152.15 185.003 1137.14 173.196 1121.85 C 122.558 1056.16 72.2855 974.036 63.8358 890.061 C 62.731 879.082 65.5858 851.074 81.7705 854.698 C 150.104 870.002 181.08 936.852 206.754 993.421 C 207.087 962.698 209.926 932.053 215.241 901.791 C 224.599 845.469 238.814 792.197 238.525 734.371 C 238.376 704.547 238.484 677.093 215.779 654.195 C 205.901 644.216 191.336 636.484 177.1 636.618 C 164.438 636.699 152.391 642.092 143.897 651.483 C 128.069 668.681 126.137 698.054 145.543 713.275 C 153.118 719.283 162.83 721.913 172.401 720.547 C 180.298 719.352 186.935 715.502 191.543 708.909 C 195.411 703.459 196.765 696.616 195.266 690.104 C 193.549 682.676 189.567 677.612 183.707 673.463 C 171.865 665.08 157.451 680.354 154.32 668.682 C 156.725 658.8 174.024 656.643 181.708 659.591 C 201.019 666.999 211.392 687.764 205.27 707.266 C 202.34 716.673 195.667 724.459 186.819 728.794 C 163.211 740.356 133.752 728.131 123.979 704.011 C 117.906 689.413 118.203 672.942 124.798 658.572 C 131.253 644.449 143.04 633.46 157.579 628.009 C 187.418 616.648 214.6 631.736 232.322 655.449 C 224.622 572.586 243.436 522.743 296.237 457.734 C 306.74 444.803 375.156 369.301 386.007 365.431 C 389.884 366.192 393.304 367.685 395.452 371.216 C 401.425 381.038 397.675 477.602 395.761 494.103 C 393.972 509.526 390.789 524.535 386.624 539.481 C 401.664 520.691 426.696 490.595 445.296 474.688 z" fill="rgb(197,171,120)" transform="translate(0,0)"></path>
<path d="M 714.526 1774.56 C 726.61 1781.4 737.36 1787.39 749.974 1793.25 C 739.222 1799.79 705.8 1818.45 695.127 1819.82 C 701.896 1808.31 709.353 1787.64 714.526 1774.56 z" fill="rgb(255,255,255)" transform="translate(0,0)"></path>
<path d="M 1063.58 1814.1 C 1071.85 1813.91 1078.85 1813.99 1087.12 1814.32 C 1081.5 1815.48 1077.8 1816.29 1072 1816.7 L 1072.24 1816.17 L 1071.68 1815.23 L 1063.58 1814.1 z" fill="rgb(235,227,202)" transform="translate(0,0)"></path>
<path d="M 952.924 237.078 C 949.671 237.657 947.168 238.55 944.219 237.33 C 946.604 235.352 948.489 235.747 952.138 235.214 L 952.924 237.078 z" fill="rgb(235,227,202)" transform="translate(0,0)"></path>
<path d="M 1580.35 1593.85 C 1580.49 1594.46 1580.79 1595.41 1580.54 1596.03 C 1530.74 1721.07 1463.76 1855.57 1357.03 1941.71 C 1350.21 1947.21 1319.82 1965.47 1313.77 1964.48 L 1311.99 1961.62 C 1293.79 1901.44 1324.44 1815.9 1340.84 1758.15 C 1427.06 1720.45 1512.67 1658.87 1580.35 1593.85 z" fill="rgb(255,255,255)" transform="translate(0,0)"></path>
<path d="M 725.942 85.7516 C 730.435 87.5617 733.798 90.3368 736.445 94.4318 C 760.434 131.548 716.53 247.113 708.618 290.365 L 708.373 291.74 C 689.036 300.362 669.462 311.442 650.779 321.473 C 589.152 354.559 531.941 393.726 479.693 440.374 C 477.337 442.189 471.378 448.242 468.947 450.579 C 505.345 350.724 596.724 189.419 676.963 118.799 C 691.688 105.579 708.171 94.4576 725.942 85.7516 z" fill="rgb(255,255,255)" transform="translate(0,0)"></path>
<path d="M 1770.22 1333.59 C 1790.12 1355.3 1800.17 1399.14 1800.79 1427.79 C 1802.64 1512.17 1744.96 1570.32 1690.62 1626.49 L 1675.27 1641.33 C 1664.19 1502.57 1709.94 1449.8 1770.22 1333.59 z" fill="rgb(255,255,255)" transform="translate(0,0)"></path>
<path d="M 376.661 400.701 C 378.158 406.189 376.727 436.323 377.063 444.211 C 381.102 539.292 345.155 595.237 299.332 672.805 C 292.624 684.16 283.439 704.005 277.239 716.866 L 268.991 698.423 C 227.412 593.398 263.149 521.472 336.048 444.104 C 348.852 430.515 365.204 415.164 376.661 400.701 z" fill="rgb(255,255,255)" transform="translate(0,0)"></path>
<path d="M 1803.56 921.231 C 1806.33 920.909 1805.05 920.769 1807.43 921.917 C 1814.77 954.424 1816.07 975.269 1799.39 1005.14 C 1762.76 1070.72 1690.74 1103.57 1622.59 1124.39 L 1612.79 1126.61 C 1630.42 1034.74 1709.64 939.665 1803.56 921.231 z" fill="rgb(255,255,255)" transform="translate(0,0)"></path>
<path d="M 448.038 918.397 L 448.451 918.827 C 448.075 923.635 426.909 965.422 423.085 972.548 C 389.568 1035.01 342.183 1085.33 276.168 1113.8 C 263.352 1119.33 249.856 1122.91 236.407 1126.82 C 234.654 1123.39 235.042 1114.78 235.145 1110.67 C 237.91 1000.34 352.948 935.766 448.038 918.397 z" fill="rgb(255,255,255)" transform="translate(0,0)"></path>
<path d="M 490.512 557.431 C 504.491 556.883 522.029 559.761 535.627 562.766 C 530.305 575.163 524.205 587.211 517.364 598.839 C 476.801 668.144 416.675 701.425 341.441 721.103 C 327.453 724.327 315.359 726.221 301.22 728.092 C 338.56 651.38 396.582 563.819 490.512 557.431 z" fill="rgb(255,255,255)" transform="translate(0,0)"></path>
<path d="M 1739.03 1321.38 C 1742.95 1320.81 1742.93 1320.79 1746.84 1321.29 L 1747.25 1322.66 C 1744.39 1331.09 1737.99 1340.54 1733.81 1348.54 C 1698.01 1417.02 1610.27 1505.17 1525.55 1484.39 C 1522.57 1483.29 1516.99 1481.35 1514.56 1479.41 C 1505.31 1472.01 1517.07 1456.05 1521.93 1449.69 C 1574.33 1379.72 1652.47 1333.54 1739.03 1321.38 z" fill="rgb(255,255,255)" transform="translate(0,0)"></path>
<path d="M 908.732 1657.44 C 978.867 1652.33 1019.76 1696.31 1067.04 1739.07 C 1088.43 1758.42 1112.83 1776.64 1138.16 1790.52 C 1119.97 1791.71 1102.98 1792.82 1084.75 1792.89 C 1001.92 1794.05 944.99 1763.61 888.847 1703.99 C 876.441 1690.81 865.159 1680.51 855.327 1664.67 C 872.84 1660.56 890.824 1658.69 908.732 1657.44 z" fill="rgb(255,255,255)" transform="translate(0,0)"></path>
<path d="M 919.449 258.294 C 969.159 260.212 1007.43 252.222 1058.57 270.723 C 1108.74 288.876 1135.34 319.414 1169.74 358.164 C 1173.58 362.489 1189.94 380.857 1192.12 385.494 L 1190.83 386.608 C 1159.15 391.29 1118.18 394.301 1087.19 385.215 C 1042.5 372.117 1004.13 327.104 969.811 296.863 C 951.716 280.917 939.445 271.729 919.449 258.294 z" fill="rgb(255,255,255)" transform="translate(0,0)"></path>
<path d="M 1437.73 297.434 C 1443.02 297.158 1448.31 297.007 1453.61 296.981 C 1558.24 296.925 1606.62 349.469 1675.87 418.431 C 1653.55 418.337 1637.36 416.443 1615.24 413.63 C 1557.89 404.06 1499.23 390.279 1449.43 359.503 C 1423.23 343.309 1397.87 325.038 1372.25 307.653 C 1386.95 302.788 1421.89 298.464 1437.73 297.434 z" fill="rgb(255,255,255)" transform="translate(0,0)"></path>
<path d="M 686.441 394.411 C 708.043 391.532 746.26 394.573 767.201 400.404 C 804.752 410.86 833.931 428.468 853.703 462.428 C 824.765 483.217 792.729 496.405 756.764 493.814 C 689.783 485.756 641.875 445.238 586.261 410.576 C 619.173 402.54 652.672 397.135 686.441 394.411 z" fill="rgb(255,255,255)" transform="translate(0,0)"></path>
<path d="M 1281.43 1555.42 C 1343.93 1551.97 1407.56 1602.6 1458.93 1635.16 C 1431.82 1642.55 1404.18 1647.81 1376.25 1650.88 C 1313.54 1655.63 1227.74 1652.59 1200.9 1583.06 C 1221.13 1564.02 1254.67 1557.19 1281.43 1555.42 z" fill="rgb(255,255,255)" transform="translate(0,0)"></path>
<path d="M 1833.54 913.612 C 1842.17 919.431 1857.74 936.747 1864.1 945.377 C 1904.64 1000.36 1971.43 1105.27 1963.27 1175.77 C 1958.16 1176.03 1947.29 1168.65 1943.08 1165.58 C 1869.58 1111.98 1847.21 997.95 1833.54 913.612 z" fill="rgb(255,255,255)" transform="translate(0,0)"></path>
<path d="M 85.585 876.466 C 143.894 899.835 181.984 977.138 198.256 1035.24 C 206.08 1063.19 210.508 1103.53 211.288 1132.51 C 181.381 1106.83 152.524 1056.14 133.005 1022.31 C 107.904 978.812 86.899 927.229 85.585 876.466 z" fill="rgb(255,255,255)" transform="translate(0,0)"></path>
<path d="M 1641.33 535.999 C 1686.06 535.152 1748.02 551.49 1781.49 581.03 C 1812.71 608.579 1822.55 633.493 1825.97 673.206 C 1812.01 673.082 1799.3 667.694 1786.99 661.579 C 1729.03 632.782 1684.66 582.64 1641.33 535.999 z" fill="rgb(255,255,255)" transform="translate(0,0)"></path>
<path d="M 1180.46 1813.91 L 1181.61 1814.31 C 1181.53 1814.61 1181.45 1814.92 1181.37 1815.23 C 1143.09 1868.62 1074.93 1911.58 1009.37 1918.23 C 991.866 1920.01 977.563 1916.44 965.995 1912.55 C 961.515 1910.72 957.939 1908.59 953.73 1906.24 C 977.923 1856.99 1060.67 1852.63 1110.24 1840.24 C 1134.64 1834.39 1158.23 1825.55 1180.46 1813.91 z" fill="rgb(255,255,255)" transform="translate(0,0)"></path>
<path d="M 1047.04 128.449 C 1059.06 128.189 1078.96 129.56 1088.14 138.024 C 1088.76 140.099 1089.39 141.382 1087.77 143.464 C 1056.27 183.95 1000.43 189.998 954.352 203.196 C 935.089 208.714 918.39 213.629 899.771 220.018 C 887.858 223.844 875.977 228.277 864.198 232.531 L 871.911 223.853 C 917.055 173.419 977.598 132.284 1047.04 128.449 z" fill="rgb(255,255,255)" transform="translate(0,0)"></path>
<path d="M 250.016 704.876 C 255.865 713.39 262.559 730.623 266.579 740.579 C 261.254 753.971 256.085 768.826 251.035 782.436 C 249.352 787.705 247.511 792.012 245.386 797.079 C 251.342 760.838 249.003 739.49 250.016 704.876 z" fill="rgb(255,255,255)" transform="translate(0,0)"></path>
<path d="M 323.922 1212.14 C 330.175 1198.31 337.026 1189.54 351.543 1183.38 C 369.986 1175.55 379.824 1186.39 395.367 1191.63 C 423.182 1201 442.841 1215.42 426.029 1247.19 C 486.291 1283.07 551.997 1315.26 614.083 1348.42 C 636.948 1360.63 660.611 1374.91 683.229 1386.23 C 702.576 1356.89 713.927 1363.56 740.475 1378.34 C 769.18 1394.32 794.576 1415.28 769.422 1449.01 C 797.968 1510.09 794.5 1540.85 773.682 1604.77 C 767.548 1623.6 762.885 1646.12 755.293 1664.44 C 747.8 1682.52 740.734 1708.09 733.24 1725.13 C 727.059 1741.53 720.932 1758.27 714.526 1774.56 C 709.353 1787.64 701.896 1808.31 695.127 1819.82 C 689.935 1826.38 685.405 1833.19 680.044 1839.7 C 657.537 1857.97 645.612 1870.66 613.825 1871.9 C 592.041 1872.8 570.792 1865 554.774 1850.21 C 511.989 1810.47 516.845 1717.13 514.89 1660.79 C 478.207 1652.03 456.781 1622.16 450.517 1586.55 C 428.283 1575.65 406.252 1564.33 384.435 1552.61 C 350.01 1569.65 322.44 1565.46 291.384 1543.91 C 269.913 1556.66 248.264 1569.11 226.443 1581.26 C 181.546 1606.5 115.265 1648.73 67.235 1607.29 C 51.4321 1593.6 41.7668 1574.16 40.3966 1553.3 C 37.8739 1514.55 63.5938 1488.42 85.32 1459.15 L 132.921 1394.23 L 191.229 1314.29 C 203.809 1297.11 216.721 1278.68 230.737 1262.75 C 237.611 1255.81 242.71 1251.07 250.168 1244.78 C 274.541 1226.1 293.597 1217.1 323.922 1212.14 z" fill="rgb(1,1,1)" transform="translate(0,0)"></path>
<path d="M 334.82 1399.4 C 361.461 1395.84 387.954 1406.91 404.149 1428.36 C 420.343 1449.81 423.729 1478.32 413.009 1502.97 C 402.289 1527.62 379.125 1544.58 352.391 1547.36 C 311.881 1551.58 275.492 1522.49 270.689 1482.04 C 265.886 1441.6 294.448 1404.79 334.82 1399.4 z" fill="rgb(255,255,255)" transform="translate(0,0)"></path>
<path d="M 337.652 1415.84 C 369.239 1411.73 398.17 1434.02 402.254 1465.61 C 406.337 1497.2 384.025 1526.12 352.432 1530.18 C 320.873 1534.23 291.998 1511.95 287.919 1480.39 C 283.84 1448.84 306.1 1419.95 337.652 1415.84 z" fill="rgb(1,1,1)" transform="translate(0,0)"></path>
<path d="M 342.165 1431.6 C 364.818 1429.53 384.847 1446.24 386.884 1468.9 C 388.92 1491.55 372.191 1511.56 349.534 1513.57 C 326.911 1515.58 306.937 1498.89 304.904 1476.27 C 302.871 1453.64 319.546 1433.65 342.165 1431.6 z" fill="rgb(255,255,255)" transform="translate(0,0)"></path>
<path d="M 529.021 1503.91 C 569.144 1499.01 605.569 1527.75 610.152 1567.91 C 614.736 1608.07 585.721 1644.27 545.528 1648.54 C 505.77 1652.77 470.046 1624.14 465.512 1584.41 C 460.978 1544.69 489.333 1508.75 529.021 1503.91 z" fill="rgb(255,255,255)" transform="translate(0,0)"></path>
<path d="M 530.577 1518.49 C 550.929 1515.16 571.498 1523.04 584.419 1539.11 C 597.34 1555.18 600.615 1576.96 592.992 1596.13 C 585.368 1615.29 568.026 1628.87 547.595 1631.67 C 516.564 1635.93 487.874 1614.45 483.216 1583.48 C 478.559 1552.5 499.666 1523.54 530.577 1518.49 z" fill="rgb(1,1,1)" transform="translate(0,0)"></path>
<path d="M 537.233 1533.46 C 559.573 1531.93 578.902 1548.85 580.36 1571.19 C 581.818 1593.54 564.851 1612.82 542.502 1614.21 C 520.242 1615.6 501.055 1598.72 499.603 1576.46 C 498.151 1554.2 514.981 1534.97 537.233 1533.46 z" fill="rgb(255,255,255)" transform="translate(0,0)"></path>
<path d="M 468.069 1288.77 C 502.127 1306.4 536.406 1323.25 570.2 1341.29 C 587.678 1350.63 605.371 1359.63 622.036 1370.37 C 613.894 1374.82 606.799 1380 599.22 1385.31 C 587.815 1393.02 578.262 1400.16 567.322 1408.55 C 537.935 1393.64 507.185 1377.52 477.442 1363.7 C 473.651 1344.02 470.901 1310.16 468.069 1288.77 z" fill="rgb(255,255,255)" transform="translate(0,0)"></path>
<path d="M 203.631 1326.74 C 204.774 1332.92 203.453 1351.73 205.209 1363.56 C 211.004 1402.62 226.77 1435.11 258.468 1459.35 L 257.76 1473.36 C 257.066 1472.89 256.379 1472.4 255.7 1471.9 C 218.008 1444.15 200.535 1409.9 193.437 1364.78 C 169.251 1407.26 141.501 1447.6 110.486 1485.38 C 101.802 1496.09 93.3284 1506.97 85.0689 1518 C 65.062 1545.07 61.3677 1555.48 61.284 1589.44 C 57.8376 1584.06 54.4892 1578.58 53.3562 1572.21 C 47.5365 1539.48 79.6265 1506.46 98.3114 1482.65 C 113.375 1463.72 127.913 1444.38 141.91 1424.64 C 166.974 1389.63 181.294 1360.69 203.631 1326.74 z" fill="rgb(255,255,255)" transform="translate(0,0)"></path>
<path d="M 744.02 1624.21 C 744.105 1629.24 738.15 1643.09 736.029 1648.55 C 728.956 1666.85 721.689 1685.08 714.229 1703.23 L 680.974 1784.92 C 672.044 1806.3 664.287 1831.86 644.447 1845.2 C 650.203 1833.03 656.585 1815.74 661.716 1802.96 C 671.28 1778.99 681.034 1755.09 690.977 1731.27 C 702.572 1702.84 714.418 1675.28 724.034 1646.13 C 711.749 1651.41 698.891 1655.23 685.72 1657.53 C 656.255 1662.85 616.084 1660.91 590.797 1643.26 L 597.688 1634.98 C 650.414 1657.95 694.078 1649.59 744.02 1624.21 z" fill="rgb(255,255,255)" transform="translate(0,0)"></path>
<path d="M 443.84 1276.85 C 447.821 1278.65 451.839 1280.21 455.894 1281.83 C 459.808 1307.8 463.653 1343.77 465.165 1369.51 L 527.215 1401 C 539.841 1407.49 554.433 1415.47 567.276 1421.15 C 587.245 1409.82 611.393 1386.2 633.393 1375.45 C 636.779 1376.68 639.847 1377.52 642.735 1379.64 L 642.793 1381.23 L 639.477 1383.65 C 613.601 1401.26 594.753 1415.97 570.205 1435.38 L 499.577 1398.55 C 483.963 1390.42 466.898 1381.04 450.872 1374.21 C 449.466 1364.63 448.901 1348.74 448.256 1338.67 C 447.011 1318.05 445.539 1297.44 443.84 1276.85 z" fill="rgb(255,255,255)" transform="translate(0,0)"></path>
<path d="M 624.219 1457.64 C 641.137 1455.77 656.392 1467.9 658.393 1484.8 C 660.393 1501.7 648.39 1517.06 631.505 1519.19 C 614.427 1521.35 598.86 1509.18 596.837 1492.09 C 594.813 1474.99 607.109 1459.53 624.219 1457.64 z" fill="rgb(255,255,255)" transform="translate(0,0)"></path>
<path d="M 648.318 1534.58 C 665.225 1533.62 679.688 1546.59 680.566 1563.5 C 681.444 1580.41 668.402 1594.81 651.487 1595.61 C 634.685 1596.4 620.403 1583.47 619.531 1566.67 C 618.659 1549.87 631.525 1535.53 648.318 1534.58 z" fill="rgb(255,255,255)" transform="translate(0,0)"></path>
<path d="M 689.066 1428.08 C 705.428 1424.49 721.606 1434.84 725.201 1451.2 C 728.796 1467.56 718.447 1483.74 702.085 1487.34 C 685.721 1490.94 669.541 1480.58 665.946 1464.22 C 662.35 1447.86 672.702 1431.68 689.066 1428.08 z" fill="rgb(255,255,255)" transform="translate(0,0)"></path>
<path d="M 718.383 1499.44 C 728.971 1496.87 740.12 1500.22 747.545 1508.2 C 754.969 1516.17 757.512 1527.53 754.197 1537.91 C 750.883 1548.29 742.225 1556.07 731.554 1558.26 C 715.448 1561.57 699.661 1551.37 696.068 1535.32 C 692.475 1519.28 702.403 1503.31 718.383 1499.44 z" fill="rgb(255,255,255)" transform="translate(0,0)"></path>
<path d="M 257.828 1495.84 L 258.96 1495.95 C 261.419 1498.49 261.804 1501.97 262.876 1505.71 C 217.509 1533.95 171.075 1560.09 126.684 1589.91 C 121.169 1593.61 104.168 1608.99 99.6715 1609.59 C 96.1122 1609.14 94.1349 1609.52 91.6661 1607.69 C 101.634 1586.21 228.446 1512.48 257.828 1495.84 z" fill="rgb(255,255,255)" transform="translate(0,0)"></path>
<path d="M 570.834 1657.2 L 571.789 1658.48 C 575.513 1704.4 578.427 1750.93 579.304 1796.96 C 579.519 1808.21 581.525 1837.96 580.017 1847.7 C 577.668 1849.04 577.083 1848.14 573.478 1847.23 C 570.805 1844.86 570.263 1841.93 570.083 1838.49 C 567.632 1791.52 566.325 1744.49 562.787 1697.58 C 561.863 1685.32 561.098 1672.9 560.931 1660.61 L 570.834 1657.2 z" fill="rgb(255,255,255)" transform="translate(0,0)"></path>
<path d="M 346.231 1254.08 C 362.435 1253.16 371.109 1263.25 366.878 1279.05 C 363.615 1291.23 355.52 1297.23 345.462 1303.34 L 334.902 1308.45 C 326.857 1288.81 322.457 1264.3 346.231 1254.08 z" fill="rgb(255,255,255)" transform="translate(0,0)"></path>
<path d="M 288.415 1279.05 C 309.269 1278.85 316.634 1295.89 322.938 1312.9 C 316.853 1314.96 313.132 1315.67 306.849 1316.92 C 294.119 1319.47 278.096 1318.57 272.409 1304.6 C 270.716 1300.52 270.813 1295.91 272.676 1291.9 C 275.939 1284.9 281.664 1281.7 288.415 1279.05 z" fill="rgb(255,255,255)" transform="translate(0,0)"></path>
<path d="M 359.325 1194.15 C 371.552 1195.36 385.233 1202.59 396.498 1207.67 C 416.504 1216.68 422.797 1216.83 415.806 1238.53 L 405.651 1233.38 C 381.818 1221.06 365.448 1210.36 338.238 1211.17 C 344.782 1202.43 348.357 1196.98 359.325 1194.15 z" fill="rgb(255,255,255)" transform="translate(0,0)"></path>
<path d="M 324.39 1324.84 L 326.155 1325.96 C 334.44 1346.76 334.507 1383.41 302.392 1373.39 C 274.891 1353.86 307.044 1333.96 324.39 1324.84 z" fill="rgb(255,255,255)" transform="translate(0,0)"></path>
<path d="M 352.612 1316.26 C 382.075 1312.39 399.297 1339.76 372.081 1354.79 C 349.172 1357.29 344.005 1338.05 337.065 1319.89 C 342.851 1318.14 346.7 1317.39 352.612 1316.26 z" fill="rgb(255,255,255)" transform="translate(0,0)"></path>
<path d="M 708.485 1379.88 C 717.379 1380.75 724.868 1387.82 732.805 1391.75 C 747.382 1398.97 776.955 1416.1 762.925 1435.99 C 760.167 1435.53 758.742 1433.12 756.267 1430.64 C 736.91 1411.03 718.486 1404.08 693.685 1392.35 C 698.957 1385.4 700.537 1383.25 708.485 1379.88 z" fill="rgb(255,255,255)" transform="translate(0,0)"></path>
<path d="M 432.801 1497.29 C 442.696 1501.33 456.981 1509.54 466.823 1514.87 C 465.155 1518.34 463.018 1522.17 461.203 1525.61 C 457.985 1527.4 432.2 1512.47 427.694 1510.08 L 432.801 1497.29 z" fill="rgb(255,255,255)" transform="translate(0,0)"></path>
<path d="M 1346.26 323.256 C 1361.87 331.861 1374.4 338.912 1389.04 349.005 L 1390.45 347.693 C 1392.99 349.56 1403.18 356.801 1404.83 358.535 L 1403.72 360.36 C 1454.64 401.929 1466.09 462.603 1460.58 525.493 C 1458.74 546.497 1452.37 564.786 1444.88 584.026 C 1433.92 612.146 1419.05 599.248 1404.37 583.155 C 1349.1 524.925 1308.77 397.701 1346.26 323.256 z" fill="rgb(197,171,120)" transform="translate(0,0)"></path>
<path d="M 1390.45 347.693 C 1392.99 349.56 1403.18 356.801 1404.83 358.535 L 1403.72 360.36 L 1389.04 349.005 L 1390.45 347.693 z" fill="rgb(235,227,202)" transform="translate(0,0)"></path>
<path d="M 1355.25 351.538 C 1404.3 379.323 1432.5 412.354 1440.01 468.697 C 1445.15 507.315 1442.26 532.686 1429.51 568.75 L 1425.95 577.763 C 1414.51 566.52 1405.82 557 1396.89 543.506 C 1362.59 491.653 1342.97 412.593 1355.25 351.538 z" fill="rgb(255,255,255)" transform="translate(0,0)"></path>
<path d="M 1256.16 1075.25 C 1287.77 1072.59 1278.36 1108.34 1271.43 1126.15 C 1277.94 1129.06 1280.39 1129.68 1286.88 1131.39 C 1294.3 1133.36 1315.22 1132.76 1319.54 1137.04 C 1319.65 1150.19 1299.89 1190.01 1298.41 1206.38 C 1298.01 1210.81 1295.07 1222.82 1297 1226.69 C 1307.69 1248.09 1336.96 1206.41 1339.72 1205.07 L 1341.89 1206.31 C 1347.52 1218.57 1312.12 1257.08 1300.46 1262.22 C 1274.71 1273.56 1254.41 1256.32 1253.99 1229.52 C 1253.46 1195.41 1273.17 1177.47 1282.76 1148.9 C 1275.37 1146.63 1272.08 1145.03 1265.09 1141.62 C 1250.38 1174.43 1228.86 1204.78 1205.94 1232.07 C 1191.8 1248.91 1160.33 1280.86 1138.97 1257.92 C 1128.06 1246.2 1129.73 1229.43 1129.98 1214.77 C 1125.49 1221.47 1120.8 1228.03 1115.92 1234.45 C 1098.11 1257.67 1072.57 1280.68 1044.07 1255.63 C 1032.13 1245.14 1027.97 1231.49 1026.7 1216.21 C 1014.41 1232.87 1000.22 1249.28 981.559 1258.72 C 946.184 1276.62 910.276 1266.94 891.878 1231.36 C 871.509 1180.78 903.494 1124.4 950.323 1101.92 C 968.412 1093.24 1000.1 1093.22 1007.93 1115.41 C 1023.55 1159.67 955.347 1187.07 924.192 1198.09 C 935.853 1237.6 974.601 1246.77 1006.06 1222.92 C 1013.8 1217.04 1016.04 1211.33 1025.8 1209.55 C 1028.48 1204.8 1029.25 1190.29 1031.01 1183.83 C 1041.9 1143.72 1079.47 1088.22 1127.66 1097.07 C 1141.84 1099.67 1149.84 1111.35 1157.03 1122.64 L 1162.78 1110.47 C 1172.73 1106.08 1185.77 1102.26 1196.31 1098.86 C 1189.36 1129.57 1177.14 1159.69 1171.22 1190.93 C 1166.12 1217.84 1161.84 1252.79 1198.03 1220.62 C 1226.17 1195.61 1237.67 1167.27 1252.29 1134.09 C 1233.84 1115.72 1226.99 1086.01 1256.16 1075.25 z" fill="rgb(1,1,1)" transform="translate(0,0)"></path>
<path d="M 1116.31 1116.19 C 1176.88 1111.32 1137.87 1209.78 1096.82 1230.48 C 1052.89 1243.81 1067.47 1183.57 1076.74 1162.57 C 1085.68 1142.32 1094.95 1125.07 1116.31 1116.19 z" fill="rgb(255,255,255)" transform="translate(0,0)"></path>
<path d="M 965.5 1114.13 C 968.652 1113.96 975.351 1113.73 976.959 1116.87 C 990.795 1143.86 950.963 1171.61 934.031 1182.71 L 924.033 1188.7 C 925.777 1159.49 934.85 1125.11 965.5 1114.13 z" fill="rgb(255,255,255)" transform="translate(0,0)"></path>
<path d="M 1054.49 745.191 C 1061.54 744.553 1065.15 744.722 1072.17 745.041 C 1056.18 761.402 1049.12 792.939 1043.43 815.438 C 1062.75 784.374 1113.5 743.685 1124.69 805.104 C 1134.62 785.793 1164.69 754.212 1188.29 766.864 C 1216.09 781.766 1191.32 845.503 1191.76 869.314 C 1191.78 870.269 1193.64 870.533 1194.38 870.767 C 1208.15 867.61 1226.99 846.347 1230.73 833.604 C 1240.72 799.586 1257.12 763.797 1295.55 755.492 C 1331.42 747.742 1349.87 776.16 1327.25 806.182 C 1310.18 828.843 1288.45 835.817 1261.7 839.792 C 1269.76 892.257 1316.01 872.158 1334.47 838.317 L 1340.07 847.774 C 1325.07 876.811 1291.26 906.818 1255.17 890.015 C 1240.45 883.165 1234.83 867.29 1230.29 852.625 C 1218.33 867.982 1199.47 894.731 1177.48 894.091 C 1157.18 893.147 1162.4 863.67 1164.77 850.7 C 1167.61 835.101 1169.37 820.803 1169.79 805.119 C 1169.32 800.467 1169.15 794.688 1165.88 791.121 C 1163.95 789.018 1158.72 787.884 1156.26 788.573 C 1135.77 794.325 1119.52 844.179 1114.08 862.39 C 1111.73 870.281 1109.82 892.954 1107.5 896.475 C 1097.81 901.718 1087.12 891.112 1082.37 883.366 C 1082.88 865.549 1098.28 813.354 1090.5 800.606 C 1077.82 779.856 1042.16 829.521 1038.18 841.515 C 1033.28 856.265 1031.68 879.647 1030.41 896.411 C 1000.57 892.341 1004.74 873.542 1007.34 848.805 C 1005.26 852.166 1003.09 855.468 1000.82 858.706 C 976.824 893.423 940.634 920.265 933.27 856.815 C 926.799 867.791 914.817 884.921 904.169 890.39 C 862.119 911.989 850.081 851.875 859.217 822.922 C 865.311 799.979 877.967 775.626 899.15 763.028 C 918.803 751.34 940.636 756.274 951.626 776.684 L 956.508 766.33 C 965.596 762.225 974.589 761.715 984.391 761.143 C 979.372 778.259 957.754 844.819 961.949 858.792 C 962.866 861.847 965.023 864.693 967.958 866.078 C 971.147 867.582 974.275 867.618 977.576 866.513 C 991.298 861.923 1006.42 839.027 1010.89 825.651 C 1017.01 807.34 1018.37 788.857 1026.97 770.956 C 1032.79 758.825 1040.12 750.078 1053.13 745.644 L 1054.49 745.191 z" fill="rgb(1,1,1)" transform="translate(0,0)"></path>
<path d="M 920.314 772.083 C 950.034 774.741 948.128 802.931 938.174 823.313 C 930.228 839.582 927.041 854.993 910.568 865.595 C 873.644 881.458 883.059 784.968 920.314 772.083 z" fill="rgb(255,255,255)" transform="translate(0,0)"></path>
<path d="M 1300.53 765.969 C 1304.17 766.174 1310.15 768.181 1311.04 771.972 C 1317.81 800.832 1292.49 818.623 1271.45 828.929 L 1261.39 834.094 C 1265.29 810.249 1275.72 775.455 1300.53 765.969 z" fill="rgb(255,255,255)" transform="translate(0,0)"></path>
<path d="M 892.662 997.582 C 897.898 997.771 903.133 998.015 908.364 998.315 L 908.624 1000.56 C 911.746 1001.03 914.674 1001.22 916.455 1003.82 C 911.841 1017.82 901.067 1033.41 895.957 1048.38 C 878.326 1100.04 860.085 1151.41 839.365 1201.87 C 818.098 1252.79 780.265 1282.06 724.991 1278.14 C 672.25 1274.39 675.403 1209.37 716.141 1223.02 C 730.206 1227.74 701.643 1258.95 723.243 1263.61 C 782.393 1276.36 809.493 1184.21 822.518 1142.81 C 814.897 1152.26 809.17 1159.59 800.329 1168.37 C 784.902 1183.69 767.674 1196.88 744.912 1196.85 C 734.676 1196.84 722.769 1192.95 716.061 1185.41 C 684.18 1149.56 732.217 1084.9 734.882 1046.1 C 735.259 1040.6 733.419 1033.39 729.207 1029.57 C 725.342 1025.9 719.518 1024.6 714.244 1024.95 C 691.428 1026.43 677.543 1051.4 678.942 1072.38 C 679.783 1084.99 683.656 1093.4 692.829 1101.66 C 673.04 1123.34 658.171 1109.03 656.423 1082.47 C 652.574 1024.02 752.961 958.019 772.556 1039.77 C 781.328 1076.37 748.942 1121.48 746.367 1157.99 C 745.87 1165.04 749.065 1173.94 758.702 1172.08 C 806.337 1157.58 832.342 1099.07 851.397 1056.93 C 858.802 1040.46 862.341 1022.61 871.432 1007 C 874.433 1001.8 886.554 1000.56 892.121 999.751 L 892.662 997.582 z" fill="rgb(1,1,1)" transform="translate(0,0)"></path>
<path d="M 892.662 997.582 C 897.898 997.771 903.133 998.015 908.364 998.315 L 908.624 1000.56 C 904.121 999.945 896.858 999.914 892.121 999.751 L 892.662 997.582 z" fill="rgb(183,183,185)" transform="translate(0,0)"></path>
<path d="M 1495.97 752.466 C 1502.88 756.847 1511.77 772.244 1514.34 779.86 C 1539.01 853.049 1475.45 921.126 1413.33 949.44 C 1403.35 953.99 1394.69 957.328 1384.73 960.954 C 1441.31 973.731 1513.17 1028.1 1519.87 1089.98 C 1522.98 1118.73 1514.74 1144.86 1496.82 1167.38 C 1496.93 1156.05 1496.29 1147.76 1494.71 1136.6 C 1493.5 1128.3 1491.61 1120.12 1489.06 1112.14 C 1471.35 1057.46 1422.41 1009.1 1370.84 985.687 C 1347.65 975.16 1326.75 970.523 1302.27 957.972 C 1363.16 942.603 1406.75 919.629 1449.27 872.058 C 1479.27 838.502 1498.5 798.083 1495.97 752.466 z" fill="rgb(1,1,1)" transform="translate(0,0)"></path>
<path d="M 499.643 766.759 C 499.978 809.313 514.172 836.657 540.941 868.784 C 579.351 914.884 629.078 940.744 683.078 963.851 C 603.916 991.689 519.006 1043.23 498.351 1130.24 C 495.621 1143.79 495.461 1158.23 496.15 1171.97 C 475.155 1134.87 469.248 1101.38 485.807 1061.02 C 509.284 1003.8 552.508 985.26 605.281 963.179 C 527.342 929.518 441.836 856.868 499.643 766.759 z" fill="rgb(1,1,1)" transform="translate(0,0)"></path>
<path d="M 1122.67 490.465 C 1163.08 485.841 1199.53 514.982 1203.92 555.417 C 1208.31 595.851 1178.96 632.134 1138.5 636.287 C 1098.37 640.406 1062.45 611.346 1058.1 571.244 C 1053.74 531.141 1082.59 495.051 1122.67 490.465 z" fill="rgb(100,94,90)" transform="translate(0,0)"></path>
<path d="M 1123.79 501.819 C 1157.8 497.919 1188.5 522.391 1192.29 556.413 C 1196.08 590.435 1171.51 621.061 1137.47 624.737 C 1103.59 628.395 1073.14 603.961 1069.37 570.097 C 1065.6 536.233 1089.94 505.7 1123.79 501.819 z" fill="rgb(255,255,255)" transform="translate(0,0)"></path>
<path d="M 786.669 681.399 C 815.097 677.981 847.957 687.522 845.084 724.171 C 842.088 762.402 794.032 771.724 809.086 740.186 C 828.279 699.976 805.9 685.858 769.427 701.851 C 715.001 725.715 687.809 807.031 708.544 860.795 C 722.948 897.759 768.858 882.67 784.556 854.771 C 790.044 845.011 791.454 842.905 794.804 832.109 C 781.323 835.488 766.77 840.653 752.718 839.332 C 741.228 838.253 746.747 820.94 752.103 818.101 C 773.891 819.327 791.858 817.034 811.778 807.7 C 817.41 805.061 829.982 796.295 834.842 800.52 C 836.919 809.104 809.103 887.777 805.49 903.394 L 805.171 904.801 L 775.729 905.059 L 781.377 880.081 C 768.427 889.534 751.654 903.038 735.514 904.875 C 721.534 906.481 707.497 902.383 696.578 893.508 C 681.198 881.256 672.083 862.124 667.324 843.412 C 647.287 764.632 708.092 689.448 786.669 681.399 z" fill="rgb(1,1,1)" transform="translate(0,0)"></path>
<path d="M 1445.76 1254.38 C 1462.97 1257.09 1473.05 1263.39 1483.37 1277.26 C 1510.5 1313.72 1483.97 1353.76 1451.54 1374.83 C 1390.65 1414.4 1306.22 1418.94 1236.58 1405.31 C 1216.03 1401.39 1195.79 1395.93 1176.05 1389 C 1128.02 1372.41 1080.27 1351.07 1029.87 1342.99 C 997.705 1338.33 961.735 1339.09 933.782 1357.56 C 914.42 1370.35 900.831 1396.2 916.905 1416.77 C 932.051 1436.16 959.265 1437.43 981.544 1436.59 C 955.623 1445.29 914.349 1435.2 905.401 1406.45 C 893.745 1368.99 931.565 1339.48 963.429 1330.78 C 1037.01 1310.12 1108.45 1346.03 1177.15 1367.87 C 1251.52 1392.65 1331.33 1400.63 1406.68 1375.19 C 1431.48 1366.82 1463.36 1349.13 1476.06 1325.51 C 1492.25 1295.41 1475.37 1264.38 1443.28 1256.54 L 1443.46 1255.67 L 1445.76 1254.38 z" fill="rgb(1,1,1)" transform="translate(0,0)"></path>
<path d="M 1648.94 749.361 C 1681.23 746.794 1709.56 770.702 1712.46 802.96 C 1715.36 835.217 1691.74 863.794 1659.51 867.023 C 1638.37 869.142 1617.72 859.742 1605.43 842.407 C 1593.14 825.072 1591.11 802.473 1600.11 783.225 C 1609.11 763.977 1627.76 751.046 1648.94 749.361 z" fill="rgb(1,1,1)" transform="translate(0,0)"></path>
<path d="M 1649.73 759.233 C 1676.83 757.08 1700.54 777.304 1702.7 804.405 C 1704.85 831.505 1684.62 855.218 1657.52 857.368 C 1630.42 859.518 1606.71 839.295 1604.56 812.197 C 1602.41 785.098 1622.63 761.387 1649.73 759.233 z" fill="rgb(255,255,255)" transform="translate(0,0)"></path>
<path d="M 1014 1447.21 C 1044.07 1441.45 1073.11 1461.21 1078.79 1491.3 C 1084.46 1521.39 1064.62 1550.37 1034.52 1555.97 C 1004.53 1561.54 975.68 1541.8 970.024 1511.82 C 964.368 1481.84 984.036 1452.94 1014 1447.21 z" fill="rgb(1,1,1)" transform="translate(0,0)"></path>
<path d="M 1017.05 1455.25 C 1042.64 1451.17 1066.68 1468.64 1070.69 1494.24 C 1074.71 1519.83 1057.17 1543.83 1031.56 1547.77 C 1006.05 1551.7 982.169 1534.25 978.17 1508.75 C 974.171 1483.24 991.563 1459.32 1017.05 1455.25 z" fill="rgb(255,255,255)" transform="translate(0,0)"></path>
<path d="M 993.08 418.42 C 1013.78 414.01 1034.12 427.299 1038.39 448.03 C 1042.66 468.762 1029.24 489.008 1008.48 493.144 C 987.915 497.242 967.897 483.971 963.664 463.432 C 959.431 442.893 972.57 422.788 993.08 418.42 z" fill="rgb(100,94,90)" transform="translate(0,0)"></path>
<path d="M 997.19 430.367 C 1011.1 428.466 1023.94 438.135 1025.95 452.028 C 1027.96 465.92 1018.4 478.836 1004.52 480.959 C 990.486 483.107 977.391 473.407 975.356 459.357 C 973.321 445.307 983.124 432.291 997.19 430.367 z" fill="rgb(255,255,255)" transform="translate(0,0)"></path>
<path d="M 1595.97 909.27 C 1609.22 906.759 1622.79 911.592 1631.46 921.912 C 1640.14 932.231 1642.57 946.43 1637.82 959.046 C 1633.07 971.663 1621.88 980.733 1608.55 982.768 C 1588.45 985.838 1569.59 972.238 1566.16 952.195 C 1562.74 932.152 1576 913.057 1595.97 909.27 z" fill="rgb(1,1,1)" transform="translate(0,0)"></path>
<path d="M 1597.8 919.177 C 1612.65 916.392 1626.93 926.219 1629.63 941.084 C 1632.33 955.948 1622.43 970.173 1607.55 972.792 C 1592.78 975.39 1578.7 965.577 1576.02 950.831 C 1573.33 936.084 1583.07 921.941 1597.8 919.177 z" fill="rgb(255,255,255)" transform="translate(0,0)"></path>
<path d="M 892.662 997.582 C 882.41 994.344 874.749 989.997 869.722 979.888 C 865.563 971.363 865.068 961.509 868.353 952.61 C 871.711 943.534 878.649 936.235 887.544 932.422 C 897.461 928.243 908.485 928.818 918.304 932.983 C 926.565 936.515 933.082 943.188 936.417 951.531 C 939.951 960.287 939.685 970.119 935.682 978.671 C 930.046 990.745 920.956 995.968 908.364 998.315 C 903.133 998.015 897.898 997.771 892.662 997.582 z" fill="rgb(1,1,1)" transform="translate(0,0)"></path>
<path d="M 896.621 938.798 C 905.777 936.639 915.386 939.592 921.749 946.522 C 928.112 953.451 930.237 963.277 927.307 972.216 C 924.376 981.156 916.846 987.817 907.616 989.634 C 893.706 992.373 880.165 983.469 877.168 969.612 C 874.171 955.756 882.822 942.052 896.621 938.798 z" fill="rgb(255,255,255)" transform="translate(0,0)"></path>
<path d="M 1091.04 929.997 C 1094.27 929.957 1097.16 929.488 1099.86 931.042 C 1100.67 938.75 1101.42 992.224 1098.6 995.97 C 1095.37 996.825 1095.6 996.907 1092.41 995.965 C 1088.81 991.605 1090.87 972.296 1090.92 965.9 L 1065.45 965.876 L 1065.39 991.25 C 1065.38 991.842 1064.99 994.186 1064.89 994.86 C 1061.55 996.879 1060.34 997.154 1057.21 995.082 C 1056.12 988.212 1056.45 938.717 1057.54 931.687 C 1060.67 930.111 1059.86 930.643 1063.95 931.028 C 1067.5 935.015 1066.18 950.234 1066.06 956.426 L 1090.99 956.412 L 1091.04 929.997 z" fill="rgb(1,1,1)" transform="translate(0,0)"></path>
<path d="M 1112 930.124 C 1118.19 930.12 1143.36 928.828 1145.97 932.812 C 1145.65 937.415 1146.59 935.669 1143.67 938.525 C 1137.42 940.41 1128 939.527 1121.01 939.452 L 1120.99 955.977 C 1126.57 955.95 1138.82 955.588 1143.78 956.319 C 1145.52 958.81 1145.23 958.935 1145.42 962.062 C 1140.42 968.826 1127.7 961.218 1121.3 966.561 L 1120.96 970.75 L 1121 986.991 C 1128.7 987.13 1142.03 984.145 1146.33 990.756 C 1146.05 994.312 1146.67 992.861 1144.95 995.491 C 1137.66 996.736 1120.31 996.23 1111.98 996.237 C 1111.76 974.345 1111.98 952.048 1112 930.124 z" fill="rgb(1,1,1)" transform="translate(0,0)"></path>
<path d="M 948.846 930.216 C 955.331 930.326 975.352 929.089 979.699 931.403 C 980.706 935.488 980.473 936.425 977.682 939.212 C 972.552 940.972 962.993 939.974 957.152 939.91 L 957.161 955.677 L 981.547 955.511 C 981.509 960.38 982.394 960.884 980.042 963.815 L 976.25 964.111 L 957.933 964.316 C 957.777 973.282 960.882 990.06 954.565 996.018 C 950.983 996.418 952.524 996.874 949.61 995.505 C 947.582 984.818 948.737 943.039 948.846 930.216 z" fill="rgb(1,1,1)" transform="translate(0,0)"></path>
<path d="M 1013.55 930.475 C 1020.45 930.439 1046.09 928.871 1049.87 932.211 C 1050.09 934.911 1050.55 936.394 1049.09 938.615 C 1045.51 940.597 1039.62 939.847 1035.27 939.73 L 1035.53 983.193 C 1035.79 988.204 1037.23 992.976 1033.05 996.051 C 1029.26 996.019 1029.74 996.579 1026.91 994.929 C 1025.28 987.748 1026.16 949.685 1026.23 939.866 C 1020.55 939.838 1014.82 941.946 1011.94 936.63 C 1012.08 932.343 1011.33 932.762 1013.55 930.475 z" fill="rgb(1,1,1)" transform="translate(0,0)"></path>
<path d="M 1443.28 1256.54 C 1440.01 1256.35 1435.09 1256.54 1432.69 1254.78 C 1436.66 1253.04 1441.46 1253.86 1445.76 1254.38 L 1443.46 1255.67 L 1443.28 1256.54 z" fill="rgb(144,142,144)" transform="translate(0,0)"></path>
<path d="M 812.315 1835.55 C 831.845 1832.45 850.236 1845.64 853.569 1865.13 C 856.901 1884.62 843.934 1903.17 824.482 1906.73 C 811.694 1909.07 798.634 1904.36 790.29 1894.39 C 781.946 1884.42 779.606 1870.73 784.164 1858.55 C 788.723 1846.38 799.475 1837.59 812.315 1835.55 z" fill="rgb(100,94,90)" transform="translate(0,0)"></path>
<path d="M 815.609 1847.77 C 824.111 1846.81 832.479 1850.48 837.522 1857.39 C 842.566 1864.3 843.508 1873.39 839.99 1881.19 C 836.472 1888.99 829.036 1894.31 820.515 1895.1 C 807.526 1896.32 795.982 1886.84 794.637 1873.87 C 793.291 1860.89 802.647 1849.25 815.609 1847.77 z" fill="rgb(255,255,255)" transform="translate(0,0)"></path>
<metadata><recraft-signature>{"signed_by": "recraft", "signature_b64": "30OEiCfWuLnHhaKRSZkkWRw1cFLDqlFhlhRo4VOmCYt+RvZce9pCNZvRL3haleVIdOvtNDPaWohiHIm9ve6UBQ==", "signing_algo": "Ed25519"}</recraft-signature></metadata></svg>